<svg xmlns="http://www.w3.org/2000/svg" width="25.854" height="18" viewBox="0 0 25.854 18">
  <g id="Grupo_78" data-name="Grupo 78" transform="translate(0)">
    <path id="Trazado_416" data-name="Trazado 416" d="M27.411,68.6h2.671a.8.8,0,0,0,.811-.811A.786.786,0,0,0,30.082,67H27.411a.8.8,0,1,0,0,1.6Z" transform="translate(-21.991 -57.315)" fill="#999"/>
    <path id="Trazado_417" data-name="Trazado 417" d="M31.342,24H7.334a.9.9,0,0,0-.912.912v5.674a.912.912,0,0,0,0,.4v10.1A.9.9,0,0,0,7.334,42H31.342a.9.9,0,0,0,.912-.912V24.912A.916.916,0,0,0,31.342,24ZM30.43,40.2H8.247V31.7H30.43Zm0-10.3H8.247V25.824H30.43Z" transform="translate(-6.4 -24)" fill="#999"/>
  </g>
</svg>
