<svg xmlns="http://www.w3.org/2000/svg" width="15.238" height="20" viewBox="0 0 15.238 20">
  <path id="ic_lock_outline_48px" d="M15.619,17.238a1.9,1.9,0,1,0-1.9-1.9A1.91,1.91,0,0,0,15.619,17.238Zm5.714-8.571h-.952v-1.9a4.762,4.762,0,0,0-9.524,0v1.9H9.9a1.91,1.91,0,0,0-1.9,1.9V20.1A1.91,1.91,0,0,0,9.9,22H21.333a1.91,1.91,0,0,0,1.9-1.9V10.571A1.91,1.91,0,0,0,21.333,8.667Zm-8.667-1.9a2.952,2.952,0,0,1,5.9,0v1.9h-5.9ZM21.333,20.1H9.9V10.571H21.333Z" transform="translate(-8 -2)" fill="#999"/>
</svg>
